<?xml version="1.0" encoding="UTF-8" standalone="no"?>
<!-- Generator: Adobe Illustrator 16.0.0, SVG Export Plug-In . SVG Version: 6.00 Build 0)  -->

<svg
   xmlns:dc="http://purl.org/dc/elements/1.1/"
   xmlns:cc="http://creativecommons.org/ns#"
   xmlns:rdf="http://www.w3.org/1999/02/22-rdf-syntax-ns#"
   xmlns:svg="http://www.w3.org/2000/svg"
   xmlns="http://www.w3.org/2000/svg"
   xmlns:sodipodi="http://sodipodi.sourceforge.net/DTD/sodipodi-0.dtd"
   xmlns:inkscape="http://www.inkscape.org/namespaces/inkscape"
   version="1.1"
   x="0px"
   y="0px"
   width="204.95085"
   height="111.82644"
   viewBox="0 0 204.95085 111.82644"
   enable-background="new 0 0 312 167"
   xml:space="preserve"
   id="svg40"
   sodipodi:docname="AddButton.svg"
   inkscape:version="0.92.1 r15371"><metadata
     id="metadata46"><rdf:RDF><cc:Work
         rdf:about=""><dc:format>image/svg+xml</dc:format><dc:type
           rdf:resource="http://purl.org/dc/dcmitype/StillImage" /></cc:Work></rdf:RDF></metadata><defs
     id="defs44" /><sodipodi:namedview
     pagecolor="#ffffff"
     bordercolor="#666666"
     borderopacity="1"
     objecttolerance="10"
     gridtolerance="10"
     guidetolerance="10"
     inkscape:pageopacity="0"
     inkscape:pageshadow="2"
     inkscape:window-width="1920"
     inkscape:window-height="1051"
     id="namedview42"
     showgrid="false"
     inkscape:zoom="3.9970587"
     inkscape:cx="147.78632"
     inkscape:cy="39.948429"
     inkscape:window-x="0"
     inkscape:window-y="0"
     inkscape:window-maximized="1"
     inkscape:current-layer="svg40" /><g
     id="Layer_2"
     transform="translate(-50.8488,-25.198944)" /><g
     id="g35"
     transform="translate(-50.8488,-25.198944)"><g
       id="g33"><g
         id="g29"><g
           id="g27"><path
             d="m 165.682,31.766 c 0,-1.521 -0.002,-2.89 0.002,-4.257 0.002,-0.307 -0.008,-0.622 0.048,-0.92 0.154,-0.811 0.853,-1.373 1.671,-1.383 0.805,-0.008 1.496,0.557 1.651,1.389 0.062,0.326 0.066,0.667 0.068,1 0.009,1.34 0.002,2.681 0.002,3.999 0.654,0.207 15.441,0.261 16.551,0.07 0.016,-0.279 0.046,-0.58 0.049,-0.881 0.008,-1.287 -0.028,-2.576 0.016,-3.863 0.046,-1.326 1.294,-2.1 2.425,-1.533 0.654,0.33 0.976,0.895 0.974,1.639 -0.003,1.228 0,2.46 0,3.695 0.002,0.301 0,0.602 0,0.883 0.665,0.193 15.387,0.25 16.577,0.072 0.013,-0.275 0.035,-0.572 0.035,-0.873 0.007,-1.314 -0.015,-2.629 0.016,-3.945 0.018,-0.831 0.486,-1.374 1.257,-1.581 0.694,-0.189 1.459,0.063 1.823,0.698 0.184,0.322 0.278,0.734 0.289,1.111 0.036,1.229 0.015,2.463 0.015,3.693 0,0.275 0,0.553 0,0.809 0.625,0.211 15.202,0.29 16.562,0.098 0.015,-0.277 0.044,-0.572 0.046,-0.868 0.007,-1.259 0,-2.519 0.003,-3.779 0.004,-0.728 0.276,-1.311 0.955,-1.643 1.145,-0.566 2.394,0.186 2.438,1.505 0.045,1.288 0.012,2.575 0.014,3.862 0,0.3 0,0.6 0,1.004 0.412,0 0.711,0.002 1.013,0 3.106,0 6.213,0 9.319,0.002 0.279,0 0.563,-0.01 0.839,0.029 0.835,0.114 1.369,0.637 1.499,1.467 0.038,0.246 0.027,0.504 0.027,0.756 0.002,6.744 -0.007,13.49 0.014,20.237 0.002,0.717 0.093,1.453 0.267,2.15 3.204,12.982 6.427,25.962 9.645,38.941 1.308,5.268 2.591,10.541 3.927,15.802 0.226,0.891 -0.033,1.54 -0.651,2.096 -0.189,0.17 -0.485,0.285 -0.738,0.301 -1.03,0.063 -2.063,0.092 -3.094,0.103 -0.5,0.007 -1.003,-0.085 -1.502,-0.084 -0.613,0.004 -1.225,0.083 -1.836,0.086 -1.652,0.012 -3.303,0.004 -4.953,0.004 -0.308,0 -0.612,0 -1.024,0 -0.02,0.384 -0.047,0.707 -0.047,1.029 -0.006,3.471 -0.002,6.943 -0.006,10.412 0,0.279 0.014,0.564 -0.033,0.838 -0.14,0.805 -0.724,1.342 -1.553,1.402 -0.585,0.041 -1.175,0.025 -1.762,0.027 -21.805,0.043 -43.612,0.084 -65.416,0.127 -0.307,0 -0.63,-0.041 -0.92,0.033 -0.839,0.221 -1.456,-0.097 -2.028,-0.677 -2.386,-2.402 -4.793,-4.783 -7.178,-7.191 -1.633,-1.648 -3.223,-3.336 -4.862,-4.98 -1.421,-1.422 -2.875,-2.811 -4.328,-4.198 -0.544,-0.516 -0.802,-1.09 -0.75,-1.863 0.061,-0.89 -0.008,-1.788 -0.008,-2.684 -0.001,-17.494 -0.001,-34.991 -0.001,-52.484 0,-2.346 0,-4.693 0,-7.041 0,-4.168 0,-8.336 0.001,-12.504 0.001,-1.541 0.586,-2.133 2.132,-2.135 3.136,-0.006 6.271,-0.002 9.405,-0.002 0.325,0 0.655,0 1.115,0 z m 7.664,92.322 c 21.748,-0.048 43.367,-0.1 65.08,-0.15 0,-0.578 0,-1.072 0,-1.568 0,-11.475 -0.002,-22.949 0.001,-34.424 0,-0.863 0.033,-1.727 0.051,-2.59 0.019,-0.944 0.059,-1.893 0.05,-2.84 -0.019,-1.838 -0.094,-3.675 -0.098,-5.514 -0.013,-6.186 -0.003,-12.371 -0.006,-18.555 0,-0.381 -0.04,-0.762 -0.058,-1.115 -0.169,-0.053 -0.247,-0.098 -0.324,-0.098 -26.98,-0.007 -53.96,-0.013 -80.938,-0.015 -0.166,0 -0.331,0.035 -0.497,0.059 -0.024,0.004 -0.049,0.025 -0.07,0.041 -0.019,0.02 -0.033,0.045 -0.054,0.072 0,16.211 0,32.43 0,48.73 0.392,0 0.721,0 1.051,0 4.338,0 8.676,0 13.014,0 0.392,0 0.785,-0.014 1.175,0.012 0.877,0.053 1.512,0.66 1.61,1.535 0.027,0.25 0.014,0.502 0.014,0.756 0,4.869 0,9.738 0,14.607 -0.001,0.307 -0.001,0.612 -0.001,1.057 z m -16.906,-70.4 c 27.382,0 54.629,0 81.864,0 0.194,-0.906 0.158,-17.763 -0.035,-18.414 -2.995,0 -6,0 -9.053,0 0,1.281 0,2.5 0,3.687 3.317,1.736 4.663,4.148 3.979,7.064 -0.63,2.686 -2.95,4.557 -5.692,4.592 -2.727,0.035 -5.097,-1.744 -5.803,-4.34 -0.36,-1.318 -0.282,-2.607 0.239,-3.863 0.725,-1.729 2.056,-2.818 3.764,-3.441 0,-1.254 0,-2.448 0,-3.704 -5.514,0 -10.982,0 -16.5,0 0,1.27 0,2.488 0,3.695 3.684,1.58 4.599,4.465 3.761,7.625 -0.565,2.128 -2.732,4.051 -5.577,4.033 -2.702,-0.018 -5.146,-1.795 -5.715,-4.44 -0.55,-2.564 -0.013,-5.572 4.034,-7.27 0,-1.189 0,-2.385 0,-3.564 -0.882,-0.229 -15.873,-0.189 -16.525,0.039 0,1.184 0,2.377 0,3.545 2.268,1.332 2.83,1.818 3.404,2.93 0.72,1.398 1.012,2.883 0.498,4.383 -0.892,2.596 -2.863,4.411 -5.783,4.371 -2.64,-0.037 -4.957,-1.793 -5.651,-4.324 -0.352,-1.285 -0.291,-2.557 0.204,-3.789 0.712,-1.763 2.048,-2.893 3.771,-3.508 0.175,-1.016 0.135,-3.125 -0.053,-3.709 -1.384,-0.209 -15.821,-0.117 -16.399,0.109 0,1.191 0,2.389 0,3.559 3.34,1.816 4.632,4.143 3.965,7.078 -0.583,2.564 -2.842,4.458 -5.451,4.57 -2.776,0.12 -5.13,-1.484 -5.981,-4.09 -0.414,-1.266 -0.394,-2.532 0.053,-3.789 0.671,-1.898 2.064,-3.068 3.927,-3.774 0,-0.644 0,-1.228 0,-1.816 0,-0.605 0,-1.21 0,-1.787 -1.035,-0.229 -8.586,-0.182 -9.243,0.046 -0.002,6.069 -0.002,12.155 -0.002,18.296 z m 85.607,16.529 c -0.045,0.006 -0.091,0.01 -0.134,0.015 -0.015,0.125 -0.042,0.252 -0.044,0.377 -0.047,2.29 -0.125,4.579 -0.122,6.87 0.006,2.986 0.109,5.971 0.118,8.959 0.017,7.607 0.002,15.212 0.004,22.82 0,0.295 0.033,0.592 0.056,0.951 3.37,-0.037 6.643,0.049 10.009,-0.019 -3.319,-13.42 -6.604,-26.695 -9.887,-39.973 z M 169.9,109.583 c -4.06,0 -8.023,0 -12.149,0 0.915,0.922 1.711,1.736 2.52,2.539 3.147,3.127 6.299,6.254 9.451,9.377 0.014,0.016 0.054,0.016 0.076,0.008 0.025,-0.006 0.048,-0.028 0.103,-0.063 -0.001,-3.91 -0.001,-7.842 -0.001,-11.861 z m 37.476,-62.375 c 1.461,-0.061 2.695,-1.323 2.61,-2.667 -0.079,-1.273 -1.402,-2.424 -2.705,-2.357 -1.287,0.064 -2.555,1.294 -2.491,2.496 0.062,1.174 1.348,2.862 2.586,2.528 z m -37.53,-2.389 c 0.055,-1.407 -0.986,-2.562 -2.376,-2.633 -1.363,-0.07 -2.57,1.022 -2.636,2.389 -0.069,1.369 1.025,2.566 2.395,2.625 1.4,0.058 2.564,-1 2.617,-2.381 z m 57.526,2.381 c 1.378,0.027 2.531,-1.08 2.564,-2.461 0.031,-1.35 -1.113,-2.533 -2.478,-2.559 -1.37,-0.025 -2.522,1.095 -2.545,2.47 -0.024,1.397 1.063,2.524 2.459,2.55 z M 189.87,44.743 c 0.021,-1.395 -1.063,-2.524 -2.452,-2.559 -1.361,-0.037 -2.549,1.108 -2.557,2.465 -0.005,1.409 1.076,2.529 2.461,2.551 1.406,0.019 2.528,-1.061 2.548,-2.457 z"
             id="path11"
             inkscape:connector-curvature="0"
             style="clip-rule:evenodd;fill:#9b9ae6;fill-rule:evenodd" /><path
             d="m 192.157,137.024 c -10.489,0 -20.981,0 -31.472,-0.002 -0.338,0 -0.676,0.018 -1.007,-0.029 -0.924,-0.129 -1.51,-0.824 -1.492,-1.73 0.015,-0.863 0.6,-1.514 1.495,-1.637 0.305,-0.041 0.615,-0.041 0.921,-0.041 21.068,0 42.135,0 63.203,0.002 0.332,0 0.672,0.008 1,0.064 0.801,0.143 1.343,0.776 1.382,1.571 0.036,0.789 -0.44,1.492 -1.225,1.695 -0.372,0.1 -0.774,0.104 -1.162,0.104 -10.548,0.004 -21.094,0.003 -31.643,0.003 z"
             id="path13"
             inkscape:connector-curvature="0"
             style="clip-rule:evenodd;fill:#9b9ae6;fill-rule:evenodd" /><path
             d="m 234.885,133.639 c 0.991,-0.008 1.711,0.688 1.711,1.654 -0.002,0.951 -0.763,1.736 -1.68,1.729 -0.922,-0.004 -1.731,-0.793 -1.736,-1.693 -0.005,-0.942 0.74,-1.68 1.705,-1.69 z"
             id="path15"
             inkscape:connector-curvature="0"
             style="clip-rule:evenodd;fill:#9b9ae6;fill-rule:evenodd" /><g
             id="g19"><path
               d="m 176.539,80.298 c -0.006,0.03 -0.032,-0.351 -10e-4,-0.853 0.039,-0.521 0.138,-1.267 0.494,-2.134 0.334,-0.871 0.949,-1.895 2.012,-2.76 0.527,-0.429 1.168,-0.79 1.863,-1.046 0.699,-0.248 1.436,-0.365 2.149,-0.383 l 0.136,-0.006 0.033,-0.001 0.192,0.007 0.046,0.004 0.182,0.015 0.364,0.029 0.194,0.023 0.306,0.057 0.603,0.132 c 0.752,0.208 1.349,0.498 1.926,0.87 0.563,0.367 1.016,0.816 1.397,1.25 0.378,0.437 0.655,0.893 0.872,1.313 0.438,0.845 0.604,1.587 0.686,2.11 0.045,0.259 0.049,0.475 0.061,0.623 0.008,0.169 0.012,0.26 0.012,0.26 0.017,0.392 -0.288,0.723 -0.68,0.74 -0.015,0 -0.029,0 -0.043,0 l -1.846,-0.038 c 0.002,0.003 -0.027,0 -0.094,-0.074 -0.068,-0.07 -0.167,-0.172 -0.293,-0.303 -0.252,-0.261 -0.62,-0.624 -1.043,-0.965 -0.209,-0.174 -0.453,-0.316 -0.674,-0.467 -0.114,-0.06 -0.232,-0.122 -0.354,-0.185 -0.127,-0.035 -0.239,-0.094 -0.355,-0.138 -0.227,-0.067 -0.505,-0.145 -0.688,-0.161 -0.036,0 -0.071,-0.004 -0.105,-0.013 l -0.051,-0.016 c -0.03,-0.005 -0.113,-0.003 -0.168,-0.006 l -0.363,-0.019 -0.184,-0.009 -0.045,-0.003 h -0.012 l -0.006,-10e-4 c -0.152,-0.004 0.201,0.008 0.164,0.006 l -0.012,0.002 -0.048,0.008 c -0.123,0.025 -0.257,0.007 -0.375,0.025 -0.108,0.036 -0.228,0.036 -0.337,0.06 -0.211,0.062 -0.426,0.116 -0.64,0.223 -0.215,0.102 -0.444,0.227 -0.661,0.396 -0.113,0.075 -0.225,0.158 -0.327,0.255 -0.114,0.083 -0.222,0.176 -0.319,0.275 -0.199,0.191 -0.39,0.39 -0.558,0.571 -0.169,0.191 -0.315,0.358 -0.437,0.495 -0.246,0.306 -0.375,0.402 -0.382,0.432 -0.166,0.717 -0.881,1.164 -1.598,0.997 -0.713,-0.166 -1.16,-0.881 -0.993,-1.597 z"
               id="path17"
               inkscape:connector-curvature="0"
               style="fill:#9b9ae6" /></g><g
             id="g23"><path
               d="m 206.151,80.297 c -0.006,0.03 -0.033,-0.351 0,-0.853 0.039,-0.521 0.137,-1.267 0.493,-2.134 0.334,-0.87 0.949,-1.895 2.011,-2.76 0.528,-0.429 1.168,-0.79 1.865,-1.046 0.697,-0.248 1.435,-0.365 2.148,-0.383 l 0.136,-0.006 0.034,-10e-4 0.191,0.007 0.046,0.003 0.181,0.015 0.365,0.029 0.196,0.023 0.305,0.057 0.603,0.132 c 0.751,0.208 1.348,0.499 1.925,0.871 0.563,0.366 1.016,0.815 1.397,1.249 0.378,0.437 0.655,0.893 0.873,1.313 0.436,0.845 0.604,1.587 0.686,2.109 0.045,0.26 0.049,0.476 0.061,0.624 0.008,0.169 0.012,0.26 0.012,0.26 0.017,0.392 -0.289,0.723 -0.681,0.74 -0.015,10e-4 -0.028,10e-4 -0.043,10e-4 l -1.845,-0.038 c 0.002,0.002 -0.027,-0.001 -0.094,-0.075 -0.067,-0.07 -0.166,-0.172 -0.293,-0.302 -0.252,-0.262 -0.62,-0.625 -1.043,-0.966 -0.211,-0.173 -0.453,-0.316 -0.674,-0.467 -0.115,-0.06 -0.232,-0.122 -0.354,-0.185 -0.128,-0.035 -0.24,-0.095 -0.357,-0.138 -0.226,-0.067 -0.504,-0.146 -0.687,-0.162 -0.038,0 -0.073,-0.004 -0.106,-0.013 l -0.051,-0.016 c -0.028,-0.005 -0.112,-0.003 -0.166,-0.006 l -0.365,-0.019 -0.182,-0.009 -0.046,-0.003 h -0.012 -0.005 c 0.073,0.002 -0.173,-0.006 0.162,0.005 l -0.012,0.002 -0.047,0.008 c -0.123,0.025 -0.256,0.007 -0.375,0.025 -0.108,0.036 -0.228,0.036 -0.337,0.06 -0.21,0.062 -0.425,0.116 -0.64,0.224 -0.215,0.102 -0.444,0.227 -0.66,0.396 -0.114,0.075 -0.226,0.158 -0.328,0.255 -0.113,0.083 -0.221,0.176 -0.32,0.275 -0.199,0.191 -0.389,0.39 -0.557,0.571 -0.169,0.191 -0.315,0.358 -0.437,0.495 -0.246,0.305 -0.376,0.403 -0.382,0.432 -0.166,0.716 -0.881,1.163 -1.598,0.996 -0.712,-0.163 -1.159,-0.878 -0.993,-1.595 z"
               id="path21"
               inkscape:connector-curvature="0"
               style="fill:#9b9ae6" /></g><path
             stroke-miterlimit="10"
             d="m 213.573,87.854 c 0,7.34 -7.112,13.288 -15.888,13.288 -8.773,0 -15.889,-5.948 -15.889,-13.288"
             id="path25"
             inkscape:connector-curvature="0"
             style="fill:none;stroke:#9b9ae6;stroke-width:4.20800018;stroke-linecap:round;stroke-linejoin:round;stroke-miterlimit:10" /></g></g><polygon
         stroke-miterlimit="10"
         points="52.532,93.52 79.774,93.52 79.774,120.948 104.962,120.948 104.962,93.52 132.206,93.52 132.206,68.706 104.962,68.706 104.962,41.275 79.774,41.275 79.774,68.706 52.532,68.706 "
         id="polygon31"
         style="fill:#9b99e8;stroke:#9b99e8;stroke-width:3.3664;stroke-linecap:round;stroke-linejoin:round;stroke-miterlimit:10" /></g></g></svg>