<?xml version="1.0" encoding="UTF-8" standalone="no"?>
<!-- Generator: Adobe Illustrator 16.0.0, SVG Export Plug-In . SVG Version: 6.00 Build 0)  -->

<svg
   xmlns:dc="http://purl.org/dc/elements/1.1/"
   xmlns:cc="http://creativecommons.org/ns#"
   xmlns:rdf="http://www.w3.org/1999/02/22-rdf-syntax-ns#"
   xmlns:svg="http://www.w3.org/2000/svg"
   xmlns="http://www.w3.org/2000/svg"
   xmlns:sodipodi="http://sodipodi.sourceforge.net/DTD/sodipodi-0.dtd"
   xmlns:inkscape="http://www.inkscape.org/namespaces/inkscape"
   version="1.1"
   x="0px"
   y="0px"
   width="50.625328"
   height="30.828175"
   viewBox="0 0 50.625327 30.828175"
   enable-background="new 0 0 30.836 50.619"
   xml:space="preserve"
   id="svg88"
   sodipodi:docname="Expand.svg"
   inkscape:version="0.92.1 r15371"><metadata
     id="metadata94"><rdf:RDF><cc:Work
         rdf:about=""><dc:format>image/svg+xml</dc:format><dc:type
           rdf:resource="http://purl.org/dc/dcmitype/StillImage" /></cc:Work></rdf:RDF></metadata><defs
     id="defs92" /><sodipodi:namedview
     pagecolor="#ffffff"
     bordercolor="#666666"
     borderopacity="1"
     objecttolerance="10"
     gridtolerance="10"
     guidetolerance="10"
     inkscape:pageopacity="0"
     inkscape:pageshadow="2"
     inkscape:window-width="1920"
     inkscape:window-height="1051"
     id="namedview90"
     showgrid="false"
     inkscape:zoom="16.713092"
     inkscape:cx="25.309733"
     inkscape:cy="15.408483"
     inkscape:window-x="0"
     inkscape:window-y="0"
     inkscape:window-maximized="1"
     inkscape:current-layer="svg88" /><g
     id="Layer_2"
     transform="translate(9.8917323,-9.8898093)" /><g
     id="Layer_1"
     transform="rotate(90,25.311703,25.304858)"><path
       stroke-miterlimit="10"
       d="m 0.508,45.535 c 0.004,-1.431 0.471,-2.539 1.379,-3.451 2.52,-2.531 5.049,-5.055 7.574,-7.58 2.982,-2.982 5.961,-5.969 8.951,-8.944 0.246,-0.244 0.141,-0.359 -0.039,-0.539 C 15.127,21.78 11.885,18.538 8.643,15.296 6.387,13.038 4.114,10.796 1.879,8.517 -0.357,6.236 0.205,2.596 3,1.041 4.713,0.09 7.076,0.422 8.463,1.805 c 2.59,2.584 5.184,5.164 7.771,7.75 2.346,2.345 4.688,4.697 7.029,7.044 1.887,1.892 3.789,3.766 5.654,5.678 0.811,0.83 1.416,1.795 1.418,3.02 0.004,1.241 -0.607,2.215 -1.43,3.052 -2.082,2.125 -4.197,4.217 -6.299,6.323 -2.521,2.527 -5.041,5.056 -7.564,7.582 -1.943,1.941 -3.891,3.878 -5.836,5.818 -0.51,0.509 -1,1.038 -1.633,1.41 C 4.784,51.127 1.13,49.427 0.583,46.228 0.535,45.951 0.502,45.678 0.508,45.535 Z"
       id="path85"
       inkscape:connector-curvature="0"
       style="clip-rule:evenodd;fill:#bcbec0;fill-rule:evenodd;stroke:#ffffff;stroke-linecap:round;stroke-linejoin:round;stroke-miterlimit:10" /></g></svg>