<?xml version="1.0" encoding="utf-8"?>
<!-- Generator: Adobe Illustrator 16.0.0, SVG Export Plug-In . SVG Version: 6.00 Build 0)  -->
<!DOCTYPE svg PUBLIC "-//W3C//DTD SVG 1.1//EN" "http://www.w3.org/Graphics/SVG/1.1/DTD/svg11.dtd">
<svg version="1.1" xmlns="http://www.w3.org/2000/svg" xmlns:xlink="http://www.w3.org/1999/xlink" x="0px" y="0px"
	 width="1080.002px" height="1920px" viewBox="0 0 1080.002 1920" enable-background="new 0 0 1080.002 1920" xml:space="preserve">
<g id="Layer_2">
</g>
<g id="Layer_1">
	<rect fill="#7BECEF" width="1080.002" height="1920"/>
	<path fill="#E6E7E8" d="M827.117,129.74c-1.407,0-2.764,0.216-4.039,0.615c-3.471-5.931-9.889-9.925-17.257-9.925
		c-0.358,0-0.711,0.037-1.065,0.054c-5.497-10.147-16.236-17.037-28.584-17.037c-11.913,0-22.319,6.414-27.975,15.969
		c-0.293-0.009-0.587-0.019-0.882-0.019c-7.516,0-14.162,3.656-18.308,9.274c-1.079-0.273-2.199-0.434-3.364-0.434
		c-7.564,0-13.696,6.134-13.696,13.699c0,7.563,6.132,13.696,13.696,13.696c1.062,0,2.091-0.133,3.082-0.362
		c4.124,5.832,10.905,9.653,18.59,9.653c3.664,0,7.123-0.872,10.188-2.408c5.283,3.717,11.716,5.906,18.668,5.906
		c8.837,0,16.848-3.535,22.705-9.259c2.166,0.801,4.499,1.265,6.944,1.265c5.468,0,10.416-2.2,14.024-5.753
		c2.104,1.341,4.593,2.129,7.272,2.129c7.474,0,13.531-6.057,13.531-13.529C840.648,135.8,834.591,129.74,827.117,129.74z"/>
	<path fill="#E6E7E8" d="M143.516,1194.369c-1.407,0-2.764,0.215-4.039,0.614c-3.471-5.932-9.889-9.926-17.257-9.926
		c-0.358,0-0.71,0.038-1.065,0.055c-5.497-10.146-16.236-17.038-28.584-17.038c-11.912,0-22.319,6.414-27.975,15.969
		c-0.293-0.008-0.586-0.02-0.881-0.02c-7.516,0-14.163,3.659-18.308,9.275c-1.078-0.273-2.199-0.434-3.364-0.434
		c-7.564,0-13.697,6.136-13.697,13.701c0,7.562,6.132,13.695,13.697,13.695c1.062,0,2.091-0.133,3.082-0.361
		c4.124,5.833,10.905,9.652,18.59,9.652c3.664,0,7.123-0.871,10.188-2.408c5.283,3.717,11.717,5.906,18.668,5.906
		c8.838,0,16.848-3.535,22.705-9.26c2.166,0.801,4.499,1.264,6.944,1.264c5.468,0,10.416-2.199,14.025-5.751
		c2.104,1.339,4.593,2.129,7.271,2.129c7.474,0,13.531-6.058,13.531-13.53S150.989,1194.369,143.516,1194.369z"/>
	<path fill="#FFFFFF" d="M433.927,392.892c-2.032,0-3.989,0.311-5.831,0.887c-5.008-8.561-14.274-14.327-24.907-14.327
		c-0.521,0-1.026,0.049-1.539,0.078c-7.932-14.646-23.433-24.591-41.259-24.591c-17.19,0-32.213,9.256-40.375,23.051
		c-0.424-0.016-0.847-0.031-1.274-0.031c-18.147,0-32.857,14.711-32.857,32.857c0,18.149,14.71,32.857,32.857,32.857
		c5.288,0,10.281-1.256,14.706-3.476c7.625,5.365,16.913,8.524,26.943,8.524c12.759,0,24.319-5.103,32.773-13.367
		c3.127,1.159,6.494,1.823,10.024,1.823c7.891,0,15.033-3.172,20.244-8.3c3.032,1.937,6.628,3.075,10.494,3.075
		c10.787,0,19.531-8.744,19.531-19.529C453.458,401.636,444.714,392.892,433.927,392.892z"/>
	<path fill="#FFFFFF" d="M1056.686,306.943c-2.17,0-4.258,0.333-6.223,0.947c-5.344-9.137-15.232-15.289-26.579-15.289
		c-0.555,0-1.098,0.054-1.645,0.082c-8.464-15.627-25.005-26.242-44.029-26.242c-18.346,0-34.377,9.879-43.086,24.6
		c-0.453-0.018-0.905-0.033-1.359-0.033c-11.578,0-21.813,5.635-28.199,14.29c-1.66-0.422-3.389-0.67-5.18-0.67
		c-11.652,0-21.099,9.445-21.099,21.098c0,11.653,9.447,21.099,21.099,21.099c1.635,0,3.219-0.204,4.747-0.558
		c6.35,8.984,16.795,14.869,28.633,14.869c5.645,0,10.971-1.341,15.693-3.711c8.136,5.725,18.047,9.1,28.752,9.1
		c13.613,0,25.952-5.447,34.975-14.268c3.336,1.241,6.929,1.947,10.699,1.947c8.418,0,16.042-3.387,21.602-8.859
		c3.236,2.068,7.072,3.283,11.199,3.283c11.51,0,20.842-9.332,20.842-20.84C1077.527,316.273,1068.195,306.943,1056.686,306.943z"/>
	<path fill="#FFFFFF" d="M156.952,1840.88c-2.032,0-3.989,0.311-5.831,0.886c-5.008-8.56-14.274-14.325-24.907-14.325
		c-0.521,0-1.026,0.049-1.539,0.075c-7.932-14.644-23.433-24.589-41.259-24.589c-17.19,0-32.213,9.255-40.375,23.05
		c-0.424-0.015-0.847-0.031-1.274-0.031c-18.146,0-32.856,14.711-32.856,32.857c0,18.148,14.71,32.857,32.856,32.857
		c5.288,0,10.281-1.255,14.706-3.477c7.625,5.365,16.913,8.526,26.943,8.526c12.759,0,24.319-5.104,32.773-13.367
		c3.127,1.157,6.494,1.821,10.024,1.821c7.891,0,15.033-3.171,20.244-8.3c3.032,1.937,6.628,3.076,10.494,3.076
		c10.786,0,19.53-8.744,19.53-19.53C176.482,1849.624,167.738,1840.88,156.952,1840.88z"/>
	<path fill="#FFFFFF" d="M1056.686,1849.99c-2.17,0-4.258,0.332-6.223,0.947c-5.344-9.137-15.232-15.289-26.579-15.289
		c-0.555,0-1.098,0.054-1.645,0.082c-8.464-15.627-25.005-26.242-44.029-26.242c-18.346,0-34.377,9.879-43.086,24.6
		c-0.453-0.018-0.905-0.033-1.359-0.033c-11.578,0-21.813,5.635-28.199,14.29c-1.66-0.423-3.389-0.67-5.18-0.67
		c-11.652,0-21.099,9.445-21.099,21.097c0,11.653,9.447,21.1,21.099,21.1c1.635,0,3.219-0.205,4.747-0.558
		c6.35,8.984,16.795,14.869,28.633,14.869c5.645,0,10.971-1.341,15.693-3.711c8.136,5.725,18.047,9.1,28.752,9.1
		c13.613,0,25.952-5.447,34.975-14.268c3.336,1.241,6.929,1.947,10.699,1.947c8.418,0,16.042-3.387,21.602-8.859
		c3.236,2.068,7.072,3.283,11.199,3.283c11.51,0,20.842-9.333,20.842-20.84C1077.527,1859.319,1068.195,1849.99,1056.686,1849.99z"
		/>
	<path fill="#FFFFFF" d="M387.62,1462.138c-2.17,0-4.258,0.332-6.223,0.947c-5.344-9.137-15.232-15.29-26.579-15.29
		c-0.555,0-1.098,0.055-1.645,0.082c-8.465-15.626-25.006-26.242-44.03-26.242c-18.346,0-34.377,9.878-43.086,24.6
		c-0.453-0.018-0.904-0.033-1.359-0.033c-11.578,0-21.813,5.635-28.199,14.288c-1.66-0.421-3.389-0.669-5.18-0.669
		c-11.652,0-21.1,9.445-21.1,21.098s9.448,21.1,21.1,21.1c1.635,0,3.219-0.206,4.746-0.559c6.35,8.984,16.795,14.868,28.633,14.868
		c5.644,0,10.971-1.341,15.693-3.71c8.137,5.724,18.047,9.1,28.752,9.1c13.614,0,25.952-5.447,34.975-14.268
		c3.336,1.241,6.93,1.947,10.699,1.947c8.418,0,16.042-3.387,21.602-8.86c3.236,2.069,7.072,3.284,11.199,3.284
		c11.51,0,20.842-9.331,20.842-20.84C408.462,1471.468,399.13,1462.138,387.62,1462.138z"/>
	<path fill="#FFFFFF" d="M396.593,89.942c-0.909,0-1.792,0.096-2.649,0.271c-2.526-10.277-11.778-17.912-22.838-17.912
		c-8.434,0-15.81,4.449-19.968,11.113c-1.542-0.48-3.182-0.736-4.882-0.736c-9.088,0-16.454,7.366-16.454,16.451
		c0,9.084,7.366,16.449,16.454,16.449c3.231,0,6.239-0.943,8.783-2.555c4.208,3.94,9.846,6.37,16.067,6.37
		c6.545,0,12.462-2.674,16.729-6.985c2.306,2.123,5.375,3.431,8.757,3.431c7.151,0,12.948-5.799,12.948-12.95
		S403.744,89.942,396.593,89.942z"/>
	<path fill="#FFFFFF" d="M180.942,213.282c-1.685,0-3.322,0.179-4.909,0.504c-4.681-19.042-21.822-33.187-42.314-33.187
		c-15.626,0-29.292,8.243-36.996,20.591c-2.857-0.891-5.897-1.366-9.047-1.366c-16.838,0-30.484,13.646-30.484,30.481
		c0,16.831,13.646,30.477,30.484,30.477c5.987,0,11.56-1.748,16.273-4.732c7.796,7.299,18.244,11.8,29.769,11.8
		c12.126,0,23.089-4.953,30.997-12.94c4.272,3.934,9.959,6.355,16.227,6.355c13.248,0,23.988-10.744,23.988-23.992
		C204.931,224.024,194.19,213.282,180.942,213.282z"/>
	<path fill="#FFFFFF" d="M983.259,1208.288c-0.908,0-1.792,0.096-2.648,0.272c-2.527-10.278-11.779-17.913-22.838-17.913
		c-8.434,0-15.811,4.449-19.969,11.112c-1.541-0.479-3.181-0.735-4.882-0.735c-9.088,0-16.454,7.365-16.454,16.451
		c0,9.084,7.366,16.449,16.454,16.449c3.232,0,6.24-0.943,8.783-2.555c4.209,3.94,9.847,6.37,16.068,6.37
		c6.545,0,12.461-2.674,16.729-6.984c2.307,2.123,5.375,3.429,8.757,3.429c7.151,0,12.948-5.799,12.948-12.949
		S990.41,1208.288,983.259,1208.288z"/>
	<path fill="#FFFFFF" d="M1023.128,1581.795c-0.908,0-1.793,0.095-2.648,0.271c-2.527-10.277-11.78-17.912-22.838-17.912
		c-8.434,0-15.81,4.45-19.968,11.114c-1.542-0.481-3.183-0.737-4.883-0.737c-9.088,0-16.453,7.365-16.453,16.451
		c0,9.084,7.365,16.449,16.453,16.449c3.231,0,6.239-0.942,8.783-2.554c4.208,3.94,9.847,6.369,16.068,6.369
		c6.545,0,12.461-2.673,16.729-6.984c2.307,2.124,5.375,3.43,8.758,3.43c7.15,0,12.948-5.799,12.948-12.949
		S1030.279,1581.795,1023.128,1581.795z"/>
	<g>
		<circle fill="#FFDF78" cx="540" cy="424.253" r="118.656"/>
		<circle fill="#FFF18C" cx="540.001" cy="424.253" r="84.169"/>
	</g>
	<path fill="#FFFFFF" d="M670.321,478.97c-0.909,0-1.793,0.096-2.649,0.272c-2.526-10.277-11.778-17.912-22.838-17.912
		c-8.434,0-15.81,4.45-19.968,11.113c-1.542-0.48-3.182-0.737-4.882-0.737c-9.088,0-16.453,7.365-16.453,16.452
		c0,9.084,7.365,16.449,16.453,16.449c3.231,0,6.239-0.943,8.783-2.555c4.208,3.939,9.847,6.369,16.067,6.369
		c6.545,0,12.462-2.673,16.729-6.984c2.306,2.124,5.375,3.429,8.758,3.429c7.15,0,12.947-5.798,12.947-12.949
		S677.471,478.97,670.321,478.97z"/>
</g>
</svg>
